HIERARCHY
ROOT Hips
{
	OFFSET 0.000000 0.000000 0.000000
	CHANNELS 6 Xposition Yposition Zposition Xrotation Yrotation Zrotation
	JOINT LeftUpLeg_virtual
	{
		OFFSET 0.000000 0.000000 0.000000
		CHANNELS 3 Xrotation Yrotation Zrotation
		JOINT LeftUpLeg
		{
			OFFSET 13.026900 -6.336304 -1.092800
			CHANNELS 3 Xrotation Yrotation Zrotation
			JOINT LeftLeg
			{
				OFFSET 0.524474 -46.096886 9.782700
				CHANNELS 3 Xrotation Yrotation Zrotation
				JOINT LeftFoot
				{
					OFFSET -0.524474 -53.427422 -12.948200
					CHANNELS 3 Xrotation Yrotation Zrotation
					JOINT LeftToeBase
					{
						OFFSET 0.192200 -14.009700 16.364100
						CHANNELS 3 Xrotation Yrotation Zrotation
						JOINT LeftToe_End
						{
							OFFSET -1.784700 -0.561700 9.474800
							CHANNELS 3 Xrotation Yrotation Zrotation
							End Site
							{
								OFFSET 0 0 0
							}
						}
					}
				}
			}
		}
	}
	JOINT RightUpLeg_virtual
	{
		OFFSET 0.000000 0.000000 0.000000
		CHANNELS 3 Xrotation Yrotation Zrotation
		JOINT RightUpLeg
		{
			OFFSET -12.883000 -6.336304 -1.092800
			CHANNELS 3 Xrotation Yrotation Zrotation
			JOINT RightLeg
			{
				OFFSET -0.524587 -46.096825 9.782800
				CHANNELS 3 Xrotation Yrotation Zrotation
				JOINT RightFoot
				{
					OFFSET 0.524587 -53.427383 -12.948300
					CHANNELS 3 Xrotation Yrotation Zrotation
					JOINT RightToeBase
					{
						OFFSET -0.192200 -14.009700 16.364100
						CHANNELS 3 Xrotation Yrotation Zrotation
						JOINT RightToe_End
						{
							OFFSET 1.784700 -0.561700 9.474800
							CHANNELS 3 Xrotation Yrotation Zrotation
							End Site
							{
								OFFSET 0 0 0
							}
						}
					}
				}
			}
		}
	}
	JOINT Spine_virtual
	{
		OFFSET 0.000000 0.000000 0.000000
		CHANNELS 3 Xrotation Yrotation Zrotation
		JOINT Spine
		{
			OFFSET 0.072000 7.257294 -0.789700
			CHANNELS 3 Xrotation Yrotation Zrotation
			JOINT Spine1
			{
				OFFSET 0.000000 12.508769 -0.658067
				CHANNELS 3 Xrotation Yrotation Zrotation
				JOINT Spine1_split
				{
					OFFSET 0.000000 12.508769 -0.658067
					CHANNELS 3 Xrotation Yrotation Zrotation
					JOINT Spine2
					{
						OFFSET 0.000000 12.508769 -0.658067
						CHANNELS 3 Xrotation Yrotation Zrotation
						JOINT Neck_virtual
						{
							OFFSET 0.000000 0.000000 0.000000
							CHANNELS 3 Xrotation Yrotation Zrotation
							JOINT Neck
							{
								OFFSET 0.000000 14.033295 7.520400
								CHANNELS 3 Xrotation Yrotation Zrotation
								JOINT Head
								{
									OFFSET 0.000000 8.198502 5.703100
									CHANNELS 3 Xrotation Yrotation Zrotation
									JOINT HeadTop_End
									{
										OFFSET 0.000000 17.760803 13.332701
										CHANNELS 3 Xrotation Yrotation Zrotation
										End Site
										{
											OFFSET 0 0 0
										}
									}
								}
							}
						}
						JOINT LeftShoulder_virtual
						{
							OFFSET 0.000000 0.000000 0.000000
							CHANNELS 3 Xrotation Yrotation Zrotation
							JOINT LeftShoulder
							{
								OFFSET 6.292450 5.785301 -0.669000
								CHANNELS 3 Xrotation Yrotation Zrotation
								JOINT LeftShoulder_split
								{
									OFFSET 6.292450 5.785301 -0.669000
									CHANNELS 3 Xrotation Yrotation Zrotation
									JOINT LeftArm
									{
										OFFSET 13.907140 -6.093903 1.965100
										CHANNELS 3 Xrotation Yrotation Zrotation
										JOINT LeftForeArm
										{
											OFFSET 34.140198 0.000000 0.000000
											CHANNELS 3 Xrotation Yrotation Zrotation
											JOINT LeftHand
											{
												OFFSET 40.960209 0.000000 0.000000
												CHANNELS 3 Xrotation Yrotation Zrotation
												End Site
												{
													OFFSET 0 0 0
												}
											}
										}
									}
								}
							}
						}
						JOINT RightShoulder_virtual
						{
							OFFSET 0.000000 0.000000 0.000000
							CHANNELS 3 Xrotation Yrotation Zrotation
							JOINT RightShoulder
							{
								OFFSET -6.292450 5.785301 -0.669000
								CHANNELS 3 Xrotation Yrotation Zrotation
								JOINT RightShoulder_split
								{
									OFFSET -6.292450 5.785301 -0.669000
									CHANNELS 3 Xrotation Yrotation Zrotation
									JOINT RightArm
									{
										OFFSET -13.907140 -6.093903 1.965100
										CHANNELS 3 Xrotation Yrotation Zrotation
										JOINT RightForeArm
										{
											OFFSET -34.140198 0.000000 0.000000
											CHANNELS 3 Xrotation Yrotation Zrotation
											JOINT RightHand
											{
												OFFSET -40.960209 0.000000 0.000000
												CHANNELS 3 Xrotation Yrotation Zrotation
												End Site
												{
													OFFSET 0 0 0
												}
											}
										}
									}
								}
							}
						}
					}
				}
			}
		}
	}
}
MOTION
Frames: 4
Frame Time: 0.03333333
-1.851510 111.950073 0.647129 0.000000 0.000000 0.000000 -25.034648 -11.851405 -2.528374 7.014994 21.281258 12.362128 30.942987 12.285531 -9.150759 -14.149010 26.111084 7.936945 -1.641291 -0.543939 -2.230958 0.000000 0.000000 0.000000 -23.786603 -12.127144 -2.744411 15.255099 -11.663509 -3.892444 29.825425 -9.526722 -0.681182 -19.202546 -27.119766 1.682511 -6.397711 -0.527088 1.030850 0.000000 0.000000 0.000000 -23.712176 -10.143981 -2.036792 9.842405 -3.972920 -0.206982 3.306577 -1.094469 -0.059581 0.656576 1.333534 -0.018036 0.000000 0.000000 0.000000 3.463398 -2.117314 0.094938 2.645030 2.143644 -4.496386 -4.498243 -0.492413 3.581978 0.000000 0.000000 0.000000 3.963689 -2.458244 0.221643 1.079023 -15.433161 -11.114675 0.610923 -0.730113 -0.384587 -20.714886 0.333657 -39.107378 2.981766 -67.083167 2.756875 0.000000 0.000000 0.000000 3.345925 -2.157922 0.165520 -0.252244 13.076849 16.461500 2.190391 4.002472 -1.801348 -10.385076 -6.850987 62.516892 -0.419291 42.815635 1.486581 0.000000 0.000000 0.000000 
-2.212583 111.461655 0.544594 0.000000 0.000000 0.000000 -25.175087 -12.288274 -2.828886 6.343140 21.239363 13.308184 31.813898 11.828651 -9.248965 -13.591582 25.400090 7.660939 -1.312573 -0.324794 -2.746660 0.000000 0.000000 0.000000 -23.847549 -11.606722 -2.792650 15.166840 -11.896757 -3.609815 29.559628 -9.774198 -0.649278 -19.703646 -27.052214 1.420216 -6.367485 -0.481161 0.912303 0.000000 0.000000 0.000000 -23.935367 -10.260478 -2.425671 10.179645 -4.219789 -0.221882 3.282544 -1.170499 -0.043717 0.719809 0.892861 0.103864 0.000000 0.000000 0.000000 3.568162 -2.143272 0.110931 2.619812 2.072342 -4.337727 -4.558707 -0.653288 3.767896 0.000000 0.000000 0.000000 3.949483 -2.480495 0.243628 1.057175 -15.427560 -11.153979 0.601830 -0.919954 -0.192080 -20.856710 0.138540 -39.302227 3.095284 -67.323686 2.882861 0.000000 0.000000 0.000000 3.310531 -2.205000 0.188871 -0.275345 13.037456 16.509525 2.246299 3.439717 -1.698341 -10.555152 -6.957164 62.475105 -0.400036 42.786491 1.484075 0.000000 0.000000 0.000000 
-2.981073 110.800598 0.631744 0.000000 0.000000 0.000000 -25.280706 -12.978602 -3.672016 4.205318 20.733560 15.307624 34.222079 10.884453 -9.293382 -12.550015 23.709014 7.044533 -0.861181 -0.125780 -3.305003 0.000000 0.000000 0.000000 -24.006892 -11.505870 -3.455771 15.439371 -12.367113 -3.002186 29.050058 -9.832402 -0.460601 -20.741167 -26.630535 0.843416 -5.511611 -0.403980 0.738266 0.000000 0.000000 0.000000 -24.041883 -11.006496 -3.432941 10.489338 -4.468727 -0.001528 3.247618 -1.263276 -0.022960 0.735351 0.615454 0.376850 0.000000 0.000000 0.000000 3.702191 -2.173208 0.104020 2.466010 1.927959 -4.053842 -4.789003 -1.036424 4.190654 0.000000 0.000000 0.000000 3.957523 -2.508908 0.256835 1.034633 -15.321414 -11.135889 0.527812 -1.042240 -0.128399 -21.320306 0.051173 -39.452419 3.237346 -67.407957 3.065424 0.000000 0.000000 0.000000 3.264584 -2.291066 0.181819 -0.319128 12.969506 16.565731 2.209312 3.105222 -1.575860 -10.789574 -7.029392 62.344068 -0.387229 42.701612 1.534629 0.000000 0.000000 0.000000 
-3.711717 110.187042 0.777939 0.000000 0.000000 0.000000 -25.349574 -13.810244 -4.842110 1.187824 19.627819 17.626183 37.226942 9.540029 -9.112946 -11.547762 21.004990 5.997572 -0.664034 0.003882 -3.597794 0.000000 0.000000 0.000000 -24.230000 -12.072590 -4.570982 15.925202 -12.881630 -2.355860 28.473349 -9.547615 -0.173771 -21.746609 -25.942448 0.309666 -4.375615 -0.312234 0.549377 0.000000 0.000000 0.000000 -24.006250 -12.405443 -4.792434 10.698685 -4.660199 0.399684 3.221491 -1.325841 -0.010239 0.887349 0.569107 0.526526 0.000000 0.000000 0.000000 3.816048 -2.196718 0.076434 2.241307 1.755598 -3.754531 -5.146016 -1.541025 4.689193 0.000000 0.000000 0.000000 3.973530 -2.536265 0.255423 1.007711 -15.170245 -11.069901 0.329836 -1.106626 -0.235344 -21.874613 0.113398 -39.495285 3.323140 -67.275219 3.207747 0.000000 0.000000 0.000000 3.226256 -2.382461 0.156233 -0.357142 12.906173 16.617236 2.085756 3.021062 -1.569985 -10.979466 -7.089956 62.153444 -0.379348 42.556778 1.625144 0.000000 0.000000 0.000000 
